<mxfile host="app.diagrams.net" modified="2023-11-08T02:19:45.577Z" agent="Mozilla/5.0 (Windows NT 10.0; Win64; x64) AppleWebKit/537.36 (KHTML, like Gecko) Chrome/118.0.0.0 Safari/537.36" version="22.0.8" etag="klmxV2MiNu93_z9b8RKP" type="github">
  <diagram name="Halaman-1" id="__x7Qm8x4JFa_SRhJo0F">
    <mxGraphModel>
      <root>
        <mxCell id="0" />
        <mxCell id="1" parent="0" />
      </root>
    </mxGraphModel>
  </diagram>
</mxfile>
